<svg xmlns="http://www.w3.org/2000/svg" xmlns:svg="http://www.w3.org/2000/svg" id="svg13" class="converse-svg-logo" version="1.1" viewBox="0 0 364 364"><metadata id="metadata19"/><title id="title2">Converse</title><g id="g904" class="cls-1" transform="matrix(0.2441072,0,0,0.2441072,12.20969,55.55023)"><g id="g10" data-name="Layer 2"><g id="g8" data-name="Layer 7"><path id="path4" d="m 221.46,103.71 c 0,18.83 -29.36,18.83 -29.12,0 -0.24,-18.83 29.12,-18.83 29.12,0 z" class="cls-3"/><path id="path6" d="M 179.9,4.15 C 108.92504,4.15 44.938239,46.904566 17.778836,112.4757 -9.3805118,178.0467 5.6365472,253.52014 55.823205,303.70679 106.00986,353.89345 181.4833,368.91051 247.0543,341.75116 312.62543,314.59176 355.38,250.60496 355.38,179.63 355.38,82.715072 276.81493,4.15 179.9,4.15 Z m -40.79,264.5 c -0.23,-17.82 27.58,-17.82 27.58,0 0,17.82 -27.81,17.83 -27.58,0 z M 218.6,168.24 c -4.29711,2.32859 -8.79944,4.25673 -13.45,5.76 -2.53177,0.85328 -12.23498,3.26952 -13.79313,5.4398 C 180.90809,189.252 165.08,221.2 165.08,221.2 v -35.8 c -0.003,-1.6153 -1.4729,-2.83052 -3.06,-2.53 -15.43,3 -30.23,7.7 -42.73,19.94 -38.8,38 -29.025098,103.71549 16.4849,131.18549 C 98.17801,323.32071 65.725789,295.74404 44.332966,263.03587 -3.4370336,176.59587 35.058475,51.159326 138.92848,29.569326 185.81848,19.819326 256.62,30.82 262.1,88.49 c 3.05,32.15 -15.54,64.4 -43.5,79.75 z" class="cls-4"/></g></g></g><text style="font-style:normal;font-variant:normal;font-weight:400;font-stretch:normal;font-size:50.63063431px;line-height:125%;font-family:sans-serif;-inkscape-font-specification:'sans-serif, Normal';font-variant-ligatures:normal;font-variant-caps:normal;font-variant-numeric:normal;font-feature-settings:normal;text-align:start;letter-spacing:0;word-spacing:0;writing-mode:lr-tb;text-anchor:start;fill:#000;fill-opacity:1;stroke:none;stroke-width:2.10960984px;stroke-linecap:butt;stroke-linejoin:miter;stroke-opacity:1" id="text861" x="110.045" y="98.826" xml:space="preserve"><tspan id="tspan859" x="110.045" y="98.826" style="font-style:normal;font-variant:normal;font-weight:400;font-stretch:normal;font-size:50.63063431px;font-family:Baumans;-inkscape-font-specification:'Baumans, Normal';font-variant-ligatures:normal;font-variant-caps:normal;font-variant-numeric:normal;font-feature-settings:normal;text-align:start;writing-mode:lr-tb;text-anchor:start;stroke-width:2.10960984px">converse<tspan style="fill:#a2a2a2;fill-opacity:1;stroke-width:2.10960984px" id="tspan867">.js</tspan></tspan></text><text style="font-style:normal;font-variant:normal;font-weight:400;font-stretch:normal;font-size:18.49652481px;line-height:125%;font-family:sans-serif;-inkscape-font-specification:'sans-serif, Normal';font-variant-ligatures:normal;font-variant-caps:normal;font-variant-numeric:normal;font-feature-settings:normal;text-align:start;letter-spacing:0;word-spacing:0;writing-mode:lr-tb;text-anchor:start;fill:#000;fill-opacity:1;stroke:none;stroke-width:.77068853px;stroke-linecap:butt;stroke-linejoin:miter;stroke-opacity:1" id="text865" x="124.584" y="128.443" xml:space="preserve"><tspan id="tspan863" x="124.584" y="128.443" style="font-style:normal;font-variant:normal;font-weight:400;font-stretch:normal;font-size:18.49652481px;font-family:Muli;-inkscape-font-specification:'Muli, Normal';font-variant-ligatures:normal;font-variant-caps:normal;font-variant-numeric:normal;font-feature-settings:normal;text-align:start;writing-mode:lr-tb;text-anchor:start;fill:#484848;fill-opacity:1;stroke-width:.77068853px">messaging freedom</tspan></text></svg>